<?xml version="1.0" encoding="utf-8"?>
<!-- Generator: Adobe Illustrator 24.2.1, SVG Export Plug-In . SVG Version: 6.00 Build 0)  -->
<svg version="1.1" id="Layer_1" xmlns="http://www.w3.org/2000/svg" xmlns:xlink="http://www.w3.org/1999/xlink" x="0px" y="0px"
	 viewBox="0 0 24 24" style="enable-background:new 0 0 24 24;" xml:space="preserve">
<style type="text/css">
	.st0{fill:none;}
	.st1{fill:#FF4040;}
</style>
<g>
	<rect y="0" class="st0" width="24" height="24"/>
</g>
<g>
	<path class="st1" d="M7,19c-1.1,0-2,0.9-2,2h14c0-1.1-0.9-2-2-2h-4v-2h3c1.1,0,2-0.9,2-2h-8c-1.7,0-3-1.3-3-3c0-1.1,0.6-2,1.5-2.6
		c0.4,0.6,1.1,1,1.8,1.1c0.7,0.1,1.4-0.2,1.9-0.6l0.6,1.6l0.9-0.3l0.3,0.9l1.9-0.7l-0.3-0.9l0.9-0.3l-2.7-7.5l-0.9,0.3L12.5,2
		l-1.9,0.7l0.3,0.9L10,4l0.6,1.5c-1.2,0-2.2,0.8-2.5,1.9C6.3,8.1,5,9.9,5,12c0,2.8,2.2,5,5,5v2H7z M12.9,4.5l1.7,4.7l-0.9,0.3
		l-1.7-4.7L12.9,4.5z M10.5,7c0.6,0,1,0.4,1,1s-0.4,1-1,1s-1-0.4-1-1S9.9,7,10.5,7z"/>
</g>
</svg>
