<?xml version="1.0" encoding="utf-8"?>
<!-- Generator: Adobe Illustrator 24.2.1, SVG Export Plug-In . SVG Version: 6.00 Build 0)  -->
<svg version="1.1" id="Layer_1" xmlns="http://www.w3.org/2000/svg" xmlns:xlink="http://www.w3.org/1999/xlink" x="0px" y="0px"
	 viewBox="0 0 440.6 435.7" style="enable-background:new 0 0 440.6 435.7;" xml:space="preserve">
<style type="text/css">
	.st0{fill:url(#SVGID_1_);}
	.st1{fill:url(#SVGID_2_);}
	.st2{fill:url(#SVGID_3_);}
	.st3{fill:url(#SVGID_4_);}
	.st4{fill:url(#SVGID_5_);}
	.st5{fill:url(#SVGID_6_);}
	.st6{fill:url(#SVGID_7_);}
</style>
<linearGradient id="SVGID_1_" gradientUnits="userSpaceOnUse" x1="319.1595" y1="216.9029" x2="420.2608" y2="216.9029">
	<stop  offset="0" style="stop-color:#EF4746"/>
	<stop  offset="1" style="stop-color:#B13332"/>
</linearGradient>
<polygon class="st0" points="319.2,17.1 319.2,216.9 319.2,416.7 420.3,384.9 420.3,216.9 420.3,48.9 "/>
<g>
	<linearGradient id="SVGID_2_" gradientUnits="userSpaceOnUse" x1="17.7104" y1="129.5743" x2="299.4495" y2="129.5743">
		<stop  offset="0" style="stop-color:#AE3331"/>
		<stop  offset="1" style="stop-color:#EF4545"/>
	</linearGradient>
	<polygon class="st1" points="17.7,162.2 299.4,144.7 299.4,97 17.7,119.7 	"/>
	<linearGradient id="SVGID_3_" gradientUnits="userSpaceOnUse" x1="17.7104" y1="188.9571" x2="299.4495" y2="188.9571">
		<stop  offset="0" style="stop-color:#AE3331"/>
		<stop  offset="1" style="stop-color:#EF4545"/>
	</linearGradient>
	<polygon class="st2" points="299.4,161 17.7,171.3 17.7,216.9 299.4,210.7 	"/>
	<linearGradient id="SVGID_4_" gradientUnits="userSpaceOnUse" x1="17.7104" y1="62.525" x2="299.4495" y2="62.525">
		<stop  offset="0" style="stop-color:#AE3331"/>
		<stop  offset="1" style="stop-color:#EF4545"/>
	</linearGradient>
	<polygon class="st3" points="299.4,20.1 17.7,55.7 17.7,105 299.4,74.9 	"/>
	<linearGradient id="SVGID_5_" gradientUnits="userSpaceOnUse" x1="17.7104" y1="378.5711" x2="299.4495" y2="378.5711">
		<stop  offset="0" style="stop-color:#AE3331"/>
		<stop  offset="1" style="stop-color:#EF4545"/>
	</linearGradient>
	<polygon class="st4" points="17.7,382.1 299.4,417.8 299.4,369.4 17.7,339.4 	"/>
	<linearGradient id="SVGID_6_" gradientUnits="userSpaceOnUse" x1="17.7104" y1="314.9342" x2="299.4495" y2="314.9342">
		<stop  offset="0" style="stop-color:#AE3331"/>
		<stop  offset="1" style="stop-color:#EF4545"/>
	</linearGradient>
	<polygon class="st5" points="299.4,347.6 299.4,299.8 17.7,282.3 17.7,324.8 	"/>
	<linearGradient id="SVGID_7_" gradientUnits="userSpaceOnUse" x1="17.7104" y1="254.7876" x2="299.4495" y2="254.7876">
		<stop  offset="0" style="stop-color:#AE3331"/>
		<stop  offset="1" style="stop-color:#EF4545"/>
	</linearGradient>
	<polygon class="st6" points="299.4,232.1 17.7,225.9 17.7,273.3 299.4,283.7 	"/>
</g>
</svg>
