<?xml version="1.0" encoding="utf-8"?>
<!-- Generator: Adobe Illustrator 24.2.1, SVG Export Plug-In . SVG Version: 6.00 Build 0)  -->
<svg version="1.1" id="Layer_1" xmlns="http://www.w3.org/2000/svg" xmlns:xlink="http://www.w3.org/1999/xlink" x="0px" y="0px"
	 viewBox="0 0 24 24" style="enable-background:new 0 0 24 24;" xml:space="preserve">
<style type="text/css">
	.st0{fill:none;}
	.st1{fill:#FF4040;}
</style>
<g>
	<rect y="0" class="st0" width="24" height="24"/>
</g>
<g>
	<g>
		<rect x="16.3" y="12.9" transform="matrix(0.7071 -0.7071 0.7071 0.7071 -6.8725 17.627)" class="st1" width="3" height="8.5"/>
		<path class="st1" d="M17.5,10c1.9,0,3.5-1.6,3.5-3.5c0-0.6-0.2-1.1-0.4-1.6l-2.7,2.7l-1.5-1.5l2.7-2.7c-0.5-0.3-1-0.4-1.6-0.4
			C15.6,3,14,4.6,14,6.5c0,0.4,0.1,0.8,0.2,1.2l-1.9,1.9l-1.8-1.8L11.3,7L9.9,5.6L12,3.5c-1.2-1.2-3.1-1.2-4.2,0L4.2,7l1.4,1.4H2.8
			L2.1,9.1l3.5,3.5L6.3,12V9.1l1.4,1.4l0.7-0.7l1.8,1.8L2.8,19L5,21.2L16.3,9.8C16.7,9.9,17.1,10,17.5,10z"/>
	</g>
</g>
</svg>
