<?xml version="1.0" encoding="utf-8"?>
<!-- Generator: Adobe Illustrator 24.2.1, SVG Export Plug-In . SVG Version: 6.00 Build 0)  -->
<svg version="1.1" id="Layer_1" xmlns="http://www.w3.org/2000/svg" xmlns:xlink="http://www.w3.org/1999/xlink" x="0px" y="0px"
	 viewBox="0 0 24 24" style="enable-background:new 0 0 24 24;" xml:space="preserve">
<style type="text/css">
	.st0{fill:none;}
	.st1{fill:#FF4040;}
</style>
<g>
	<rect y="0" class="st0" width="24" height="24"/>
</g>
<g>
	<g>
		<path class="st1" d="M5,5h2v3h10V5h2v5h2V5c0-1.1-0.9-2-2-2h-4.2c-0.4-1.2-1.5-2-2.8-2S9.6,1.8,9.2,3H5C3.9,3,3,3.9,3,5v14
			c0,1.1,0.9,2,2,2h5v-2H5V5z M12,3c0.6,0,1,0.5,1,1s-0.4,1-1,1s-1-0.4-1-1S11.4,3,12,3z"/>
		<path class="st1" d="M20.3,18.9c0.4-0.7,0.7-1.5,0.7-2.4c0-2.5-2-4.5-4.5-4.5S12,14,12,16.5s2,4.5,4.5,4.5c0.9,0,1.7-0.3,2.4-0.7
			l2.7,2.7l1.4-1.4L20.3,18.9z M16.5,19c-1.4,0-2.5-1.1-2.5-2.5s1.1-2.5,2.5-2.5s2.5,1.1,2.5,2.5S17.9,19,16.5,19z"/>
	</g>
</g>
</svg>
