<?xml version="1.0" encoding="utf-8"?>
<!-- Generator: Adobe Illustrator 24.2.1, SVG Export Plug-In . SVG Version: 6.00 Build 0)  -->
<svg version="1.1" id="Layer_1" xmlns="http://www.w3.org/2000/svg" xmlns:xlink="http://www.w3.org/1999/xlink" x="0px" y="0px"
	 viewBox="0 0 288.5 156.5" style="enable-background:new 0 0 288.5 156.5;" xml:space="preserve">
<style type="text/css">
	.st0{fill:none;stroke:#FFFFFF;stroke-width:9.8142;stroke-miterlimit:10;}
	.st1{fill:none;stroke:#FFFFFF;stroke-width:12;stroke-miterlimit:10;}
</style>
<path class="st0" d="M221,145.9H66.8c-30.4,0-55-24.6-55-55V68c0-30.4,24.6-55,55-55H221c30.4,0,55,24.6,55,55v22.8
	C276,121.2,251.4,145.9,221,145.9z"/>
<path class="st1" d="M66.6,77.6h50.1c8.8,0,15.9,7.2,15.9,16.2v0c0,8.9-7.1,16.2-15.9,16.2H66.6c-8.8,0-15.9-7.2-15.9-16.2v0"/>
<path class="st1" d="M117.7,77.6H66.8c-8.9,0-16.2-7.2-16.2-16.2"/>
<path class="st1" d="M50.6,61.4c0-8.9,7.1-16.2,14.2-16.2h50.1c10.5,0,17.7,7.2,17.7,16.2v0"/>
<path class="st1" d="M174.8,77.6h50.1c8.8,0,15.9,7.2,15.9,16.2v0c0,8.9-7.1,16.2-15.9,16.2h-50.1c-8.8,0-15.9-7.2-15.9-16.2v0"/>
<path class="st1" d="M225.9,77.6H175c-8.9,0-16.2-7.2-16.2-16.2"/>
<path class="st1" d="M158.8,61.4c0-8.9,7.1-16.2,14.2-16.2h50.1c10.5,0,17.7,7.2,17.7,16.2v0"/>
</svg>
